PathFileType	3	(X/Y/Z)	D:\minhoCalibration\240510\subject1_KPNP\preferred\preferred10.trc
DataRate	CameraRate	NumFrames	NumMarkers	Units	OrigDataRate	OrigDataStartFrame	OrigNumFrames
200.0	200.0	18	10	mm	200.0	628	162	
Frame#	Time	Left_Ankle_Outer1			Left_Ankle_Inner1			Left_Knee_Outer1			Left_Knee_Inner1			Left_Wrist1			Right_Wrist1			Right_Knee_Inner1			Right_Knee_Outer1			Right_Ankle_Inner1			Right_Ankle_Outer1			
		X1	Y1	Z1	X2	Y2	Z2	X3	Y3	Z3	X4	Y4	Z4	X5	Y5	Z5	X6	Y6	Z6	X7	Y7	Z7	X8	Y8	Z8	X9	Y9	Z9	X10	Y10	Z10	
628	3.13	-454.34195	123.32863	-528.15363	-509.84805	127.69058	-515.89752	-410.4028	537.17749	-331.75211	-517.70734	508.59387	-352.41739	-381.37332	997.47247	-475.69479	-730.27899	1001.4545	-556.10138	-713.7243	554.45453	-343.13638	-812.4021	583.33972	-400.97614	-704.59497	231.73871	-665.35376	-811.12006	234.84792	-687.16315
629	3.135	-454.61273	122.97127	-528.37585	-510.13107	127.27878	-516.23077	-412.36801	537.02222	-332.06366	-519.31848	508.25995	-353.19308	-383.61731	997.18176	-474.78302	-731.18073	1001.4255	-560.90961	-718.54065	550.86987	-354.92529	-815.18958	580.06317	-415.06192	-703.30109	229.19276	-678.66595	-809.78607	231.53065	-701.13501
630	3.14	-454.68756	122.68863	-528.58606	-510.38147	126.90269	-516.52124	-414.4082	536.96014	-332.38687	-521.10413	507.98209	-354.0835	-385.93625	996.88861	-474.01871	-731.92084	1001.3384	-566.13031	-722.66089	547.32196	-367.12408	-817.4494	576.91541	-429.12866	-702.13184	226.23538	-691.17651	-808.15558	227.81708	-714.60358
631	3.145	-454.78445	122.41461	-528.70258	-510.41144	126.54626	-516.86792	-416.45102	536.98615	-332.77097	-523.25061	507.62546	-355.15536	-388.29779	996.68817	-473.34976	-732.63623	998.84705	-567.46765	-726.26428	544.27905	-378.69595	-819.32806	574.02948	-442.98175	-700.74213	223.17595	-703.20618	-806.56305	223.9032	-727.45276
632	3.15	-454.56503	122.2481	-528.90973	-510.40744	126.1054	-517.19299	-418.73209	537.10986	-333.14819	-525.146	507.50427	-356.15402	-390.90729	996.42615	-472.59454	-733.75031	998.90131	-572.70422	-729.29773	541.41077	-390.71899	-820.71692	571.37683	-456.68997	-699.39948	219.73436	-714.93469	-804.86456	219.87918	-739.82123
633	3.155	-454.25104	122.20019	-529.15271	-510.05524	125.44083	-517.32355	-421.12164	537.3161	-333.50742	-527.22253	507.39746	-357.46738	-393.55606	996.2207	-472.05545	-734.46741	998.88733	-578.0752	-731.74005	538.65967	-402.78113	-821.68311	568.88708	-470.31653	-697.93939	216.1619	-726.02783	-802.92609	215.6723	-751.7193
634	3.16	-454.09515	122.03703	-529.24603	-510.08743	125.06117	-517.7757	-423.62982	537.60199	-333.90771	-529.29462	507.49643	-358.62109	-397.84534	995.77686	-469.81793	-735.15179	999.05133	-582.64508	-733.63641	536.11322	-414.81598	-822.24609	566.62622	-483.63916	-696.32513	212.32358	-736.73474	-801.01294	211.19719	-763.31677
635	3.165	-453.96475	121.70366	-529.23547	-510.11707	125.07978	-518.60797	-426.25049	537.90259	-334.37137	-531.60742	507.41571	-360.27872	-400.49588	995.59509	-469.22418	-736.17871	998.97137	-587.24402	-735.01654	533.66534	-427.02585	-822.44366	564.41266	-496.79175	-694.65857	208.27383	-746.87677	-798.94836	206.70821	-774.40753
636	3.17	-453.63712	121.53005	-529.43988	-509.51849	124.41682	-518.72516	-428.93716	538.2356	-334.99478	-533.90131	507.47412	-361.92181	-403.29868	995.48315	-469.02179	-737.08514	997.73145	-591.53937	-735.87494	531.36646	-439.08371	-822.32104	562.38666	-509.70279	-692.81958	204.17468	-756.5965	-796.82904	202.42107	-785.58917
637	3.175	-453.32895	121.22816	-529.68384	-509.44989	124.1802	-519.55286	-431.64191	538.58087	-335.72211	-536.23273	507.47388	-363.89334	-406.33179	995.36285	-468.79538	-737.80707	998.39417	-597.18085	-736.38531	529.047	-451.14355	-821.8009	560.54144	-522.26361	-690.7818	199.89003	-765.69153	-794.43286	197.54129	-795.68988
638	3.18	-452.92264	120.89005	-529.98267	-509.16241	123.70931	-520.16925	-434.33191	538.87244	-336.55844	-538.77728	507.31641	-366.1044	-410.1116	995.4101	-468.07681	-738.88348	998.38916	-602.09241	-736.46869	526.87048	-463.22522	-821.24152	558.63397	-534.91931	-688.82812	195.34557	-774.5589	-792.22858	193.09702	-806.17865
639	3.185	-452.4935	120.47438	-530.30536	-508.88586	123.13422	-520.82935	-437.10464	539.1123	-337.51639	-540.96045	507.42615	-368.18869	-412.93295	995.28223	-468.56201	-739.98145	998.10626	-606.99658	-736.21484	524.71295	-475.17099	-820.1344	557.08789	-547.04333	-686.97327	190.77469	-782.71918	-789.82373	188.13422	-815.63605
640	3.19	-451.84091	120.06349	-530.82703	-508.49652	122.36732	-521.56744	-439.87381	539.29736	-338.65033	-543.49146	507.05658	-370.78705	-416.06091	995.25751	-468.68723	-740.88562	997.99237	-611.72955	-735.92145	522.62988	-486.71304	-818.9812	555.5072	-559.5993	-685.10724	185.9827	-790.37195	-787.34796	183.05446	-824.50708
641	3.195	-451.56512	119.33736	-531.35138	-507.89493	121.3673	-522.10718	-442.90167	539.43256	-340.02161	-545.79913	506.63971	-373.49756	-418.73038	995.1106	-469.49045	-741.86523	997.95563	-616.34766	-734.94354	520.53033	-498.65167	-817.8595	553.83362	-571.59045	-683.14526	181.00826	-797.53528	-784.91296	177.89311	-832.5769
642	3.2	-451.42651	118.54154	-531.80896	-507.29221	120.76307	-524.0835	-445.63086	539.39221	-341.55872	-548.08936	506.24197	-376.15652	-421.59906	994.99487	-470.17786	-743.00073	997.8493	-620.97998	-733.89203	518.72876	-510.36752	-816.30206	552.51141	-583.43365	-681.24298	175.94751	-804.01117	-782.71423	172.89417	-840.24713
643	3.205	-451.23767	117.69015	-532.41699	-507.77478	119.35168	-524.49457	-448.2471	539.27185	-343.24673	-550.23376	505.69534	-378.98795	-424.47708	994.76422	-470.94016	-744.44379	997.35956	-625.3009	-732.53546	517.05414	-521.78827	-814.5686	551.33502	-595.29565	-679.26178	170.8846	-809.87933	-780.40167	167.96794	-847.65552
644	3.21	-450.89468	116.82336	-533.18237	-507.49039	118.2834	-525.42847	-450.69116	539.01733	-345.14755	-552.32324	505.08154	-381.81	-427.29593	994.42822	-471.86353	-745.24286	997.48041	-630.14691	-731.06482	515.61743	-533.11359	-812.7326	550.24445	-607.00024	-677.43304	165.85651	-814.96991	-777.82764	163.14856	-854.95142
645	3.215	-450.86908	115.89207	-533.81561	-507.32458	116.81089	-526.13196	-453.09659	538.68909	-347.16272	-554.39899	504.21561	-384.89444	-430.19693	994.04279	-472.65836	-746.46338	997.34222	-634.66907	-729.24866	514.34998	-544.05096	-810.73297	549.34698	-618.76263	-675.59747	161.00998	-819.17291	-775.04913	158.52397	-861.63409
